<?xml version="1.0" encoding="UTF-8" standalone="no" ?>
<!DOCTYPE svg PUBLIC "-//W3C//DTD SVG 1.1//EN" "http://www.w3.org/Graphics/SVG/1.1/DTD/svg11.dtd">
<svg xmlns="http://www.w3.org/2000/svg" xmlns:xlink="http://www.w3.org/1999/xlink" version="1.1" width="1080" height="1080" viewBox="-1.25 3.12 1080 1080" xml:space="preserve">
<desc>Created with Fabric.js 5.2.4</desc>
<defs>
</defs>
<rect x="0" y="0" width="100%" height="100%" fill="transparent"></rect>
<g transform="matrix(1 0 0 1 540 540)" id="ba25aa08-f02d-452b-b413-a3d5d9a17c27"  >
<rect style="stroke: none; stroke-width: 1; stroke-dasharray: none; stroke-linecap: butt; stroke-dashoffset: 0; stroke-linejoin: miter; stroke-miterlimit: 4; fill: rgb(255,255,255); fill-rule: nonzero; opacity: 1; visibility: hidden;" vector-effect="non-scaling-stroke"  x="-540" y="-540" rx="0" ry="0" width="1080" height="1080" />
</g>
<g transform="matrix(1 0 0 1 540 540)" id="79af4855-5944-426e-92a8-1470671dcfbb"  >
</g>
<g transform="matrix(1 0 0 1 540 697.37)"  >
<g style="opacity: 1;" vector-effect="non-scaling-stroke"   >
		<g transform="matrix(3.7 0 0 3.7 -1.39 1.39)"  >
<path style="stroke: none; stroke-width: 1; stroke-dasharray: none; stroke-linecap: butt; stroke-dashoffset: 0; stroke-linejoin: miter; stroke-miterlimit: 4; fill: none; fill-rule: nonzero; opacity: 1;" vector-effect="non-scaling-stroke"  transform=" translate(-187.5, -187.5)" d="M 0 0 L 375 0 L 375 375 L 0 375 Z" stroke-linecap="round" />
</g>
		<g transform="matrix(3.7 0 0 3.7 0 0)"  >
<path style="stroke: rgb(0,0,0); stroke-width: 0.75; stroke-dasharray: none; stroke-linecap: butt; stroke-dashoffset: 0; stroke-linejoin: miter; stroke-miterlimit: 10; fill: none; fill-rule: nonzero; opacity: 1;" vector-effect="non-scaling-stroke"  transform=" translate(-187.88, -187.13)" d="M -4.875 -5.625 L 380.625 -5.625 L 380.625 379.875 L -4.875 379.875 Z" stroke-linecap="round" />
</g>
		<g transform="matrix(3.7 0 0 3.7 235.86 -113.63)"  >
<path style="stroke: none; stroke-width: 1; stroke-dasharray: none; stroke-linecap: butt; stroke-dashoffset: 0; stroke-linejoin: miter; stroke-miterlimit: 4; fill: rgb(0,0,0); fill-rule: nonzero; opacity: 1;" vector-effect="non-scaling-stroke"  transform=" translate(-251.56, -156.45)" d="M 228.75 143.316 L 228.75 168.652 L 238.641 169.539 C 234.141 168.316 232.703 165.93 232.215 164.91 C 231.727 163.891 231.609 162.945 231.375 158.559 C 231.227 155.746 231.129 153.344 231.059 151.5 C 245.309 157.898 274.184 169.941 274.363 169.566 Z M 228.75 143.316" stroke-linecap="round" />
</g>
		<g transform="matrix(3.7 0 0 3.7 -2.78 -152.78)"  >
<path style="stroke: none; stroke-width: 1; stroke-dasharray: none; stroke-linecap: butt; stroke-dashoffset: 0; stroke-linejoin: miter; stroke-miterlimit: 4; fill: rgb(0,0,0); fill-rule: nonzero; opacity: 1;" vector-effect="non-scaling-stroke"  transform=" translate(-187.13, -145.88)" d="M 187.051 54 C 188.078 65.863 189.105 77.73 190.125 89.594 L 190.125 199.547 C 189.094 212.281 188.07 225.016 187.051 237.75 L 184.125 199.547 L 184.125 89.594 Z M 187.051 54" stroke-linecap="round" />
</g>
		<g transform="matrix(3.7 0 0 3.7 85.18 -163.25)"  >
<path style="stroke: none; stroke-width: 1; stroke-dasharray: none; stroke-linecap: butt; stroke-dashoffset: 0; stroke-linejoin: miter; stroke-miterlimit: 4; fill: rgb(0,0,0); fill-rule: nonzero; opacity: 1;" vector-effect="non-scaling-stroke"  transform=" translate(-210.87, -143.05)" d="M 198.898 82.027 C 198.105 88.074 197.305 94.117 196.5 100.164 L 196.5 204.066 L 217.5 180.383 L 217.5 159.449 L 225 163.043 L 225 156.75 L 217.5 153.164 L 217.5 144.914 C 217.5 144.914 222.711 147.336 225.246 148.547 C 225.246 146.426 225.246 144.297 225.246 142.164 C 222.711 140.961 220.184 139.762 217.492 138.562 L 217.492 115.914 C 217.059 111.898 216.473 107.887 215.879 103.867 C 215.348 107.887 214.492 115.914 214.492 115.914 L 214.492 175.824 L 200.992 189.855 L 200.992 152.078 L 210.742 156.391 L 210.742 150.203 L 200.992 146.004 L 200.992 137.91 L 210.742 142.238 L 210.742 136.043 L 200.992 131.16 L 200.992 100.5 Z M 198.898 82.027" stroke-linecap="round" />
</g>
		<g transform="matrix(3.7 0 0 3.7 -241.41 -113.63)"  >
<path style="stroke: none; stroke-width: 1; stroke-dasharray: none; stroke-linecap: butt; stroke-dashoffset: 0; stroke-linejoin: miter; stroke-miterlimit: 4; fill: rgb(0,0,0); fill-rule: nonzero; opacity: 1;" vector-effect="non-scaling-stroke"  transform=" translate(-122.69, -156.45)" d="M 145.5 143.316 L 145.5 168.652 L 135.609 169.539 C 140.109 168.316 141.547 165.93 142.035 164.91 C 142.523 163.891 142.641 162.945 142.875 158.559 C 143.023 155.746 143.121 153.344 143.191 151.5 C 128.941 157.898 100.066 169.941 99.887 169.566 Z M 145.5 143.316" stroke-linecap="round" />
</g>
		<g transform="matrix(3.7 0 0 3.7 -90.35 -163.25)"  >
<path style="stroke: none; stroke-width: 1; stroke-dasharray: none; stroke-linecap: butt; stroke-dashoffset: 0; stroke-linejoin: miter; stroke-miterlimit: 4; fill: rgb(0,0,0); fill-rule: nonzero; opacity: 1;" vector-effect="non-scaling-stroke"  transform=" translate(-163.48, -143.05)" d="M 175.352 82.027 C 176.145 88.074 176.945 94.117 177.75 100.164 L 177.75 204.066 L 156.75 180.383 L 156.75 159.449 L 149.25 163.043 L 149.25 156.75 L 156.75 153.164 L 156.75 144.914 C 156.75 144.914 151.738 147.336 149.211 148.547 C 149.211 146.422 149.211 144.293 149.211 142.164 C 151.738 140.961 154.273 139.762 156.758 138.562 L 156.758 115.914 C 157.395 111.898 157.988 107.887 158.578 103.867 C 159.113 107.887 159.758 115.914 159.758 115.914 L 159.758 175.824 L 173.258 189.855 L 173.258 152.078 L 163.508 156.391 L 163.508 150.203 L 173.258 146.004 L 173.258 137.91 L 163.508 142.238 L 163.508 136.043 L 173.258 131.16 L 173.258 100.5 Z M 175.352 82.027" stroke-linecap="round" />
</g>
</g>
</g>
</svg>