<?xml version="1.0" encoding="UTF-8" standalone="no"?>
<!DOCTYPE svg PUBLIC "-//W3C//DTD SVG 1.1//EN" "http://www.w3.org/Graphics/SVG/1.1/DTD/svg11.dtd">
<svg xmlns="http://www.w3.org/2000/svg" xmlns:xlink="http://www.w3.org/1999/xlink" version="1.1" width="1041.6666pt" height="1041.6666pt" viewBox="0 0 1041.6666 1041.6666">
<g enable-background="new">
<g>
<path transform="matrix(2.7777777,0,0,2.7777777,0,0)" d="M 0 0 L 375 0 L 375 375 L 0 375 Z "/>
<path transform="matrix(2.7777777,0,0,2.7777777,0,0)" stroke-width=".75" stroke-linecap="butt" stroke-miterlimit="10" stroke-linejoin="miter" fill="none" stroke="#000000" d="M -4.875 -5.625 L 380.625 -5.625 L 380.625 379.875 L -4.875 379.875 Z "/>
<path transform="matrix(2.7777777,0,0,2.7777777,0,0)" d="M 228.75 143.316 L 228.75 168.652 L 238.641 169.539 C 234.141 168.316 232.703 165.93 232.215 164.91 C 231.727 163.891 231.609 162.945 231.375 158.559 C 231.227 155.746 231.129 153.344 231.059 151.5 C 245.309 157.898 274.184 169.941 274.363 169.566 Z M 228.75 143.316 " fill="#ffffff"/>
<path transform="matrix(2.7777777,0,0,2.7777777,0,0)" d="M 187.051 54 C 188.078 65.863 189.105 77.73 190.125 89.594 L 190.125 199.547 C 189.094 212.281 188.07 225.016 187.051 237.75 L 184.125 199.547 L 184.125 89.594 Z M 187.051 54 " fill="#ffffff"/>
<path transform="matrix(2.7777777,0,0,2.7777777,0,0)" d="M 198.898 82.027 C 198.105 88.074 197.305 94.117 196.5 100.164 L 196.5 204.066 L 217.5 180.383 L 217.5 159.449 L 225 163.043 L 225 156.75 L 217.5 153.164 L 217.5 144.914 C 217.5 144.914 222.711 147.336 225.246 148.547 C 225.246 146.426 225.246 144.297 225.246 142.164 C 222.711 140.961 220.184 139.762 217.492 138.562 L 217.492 115.914 C 217.059 111.898 216.473 107.887 215.879 103.867 C 215.348 107.887 214.492 115.914 214.492 115.914 L 214.492 175.824 L 200.992 189.855 L 200.992 152.078 L 210.742 156.391 L 210.742 150.203 L 200.992 146.004 L 200.992 137.91 L 210.742 142.238 L 210.742 136.043 L 200.992 131.16 L 200.992 100.5 Z M 198.898 82.027 " fill="#ffffff"/>
<path transform="matrix(2.7777777,0,0,2.7777777,0,0)" d="M 145.5 143.316 L 145.5 168.652 L 135.609 169.539 C 140.109 168.316 141.547 165.93 142.035 164.91 C 142.523 163.891 142.641 162.945 142.875 158.559 C 143.023 155.746 143.121 153.344 143.191 151.5 C 128.941 157.898 100.066 169.941 99.887 169.566 Z M 145.5 143.316 " fill="#ffffff"/>
<path transform="matrix(2.7777777,0,0,2.7777777,0,0)" d="M 175.352 82.027 C 176.145 88.074 176.945 94.117 177.75 100.164 L 177.75 204.066 L 156.75 180.383 L 156.75 159.449 L 149.25 163.043 L 149.25 156.75 L 156.75 153.164 L 156.75 144.914 C 156.75 144.914 151.738 147.336 149.211 148.547 C 149.211 146.422 149.211 144.293 149.211 142.164 C 151.738 140.961 154.273 139.762 156.758 138.562 L 156.758 115.914 C 157.395 111.898 157.988 107.887 158.578 103.867 C 159.113 107.887 159.758 115.914 159.758 115.914 L 159.758 175.824 L 173.258 189.855 L 173.258 152.078 L 163.508 156.391 L 163.508 150.203 L 173.258 146.004 L 173.258 137.91 L 163.508 142.238 L 163.508 136.043 L 173.258 131.16 L 173.258 100.5 Z M 175.352 82.027 " fill="#ffffff"/>
<symbol id="font_0_1">
<path d="M 0 .7290039 L .09863281 .7290039 L .09863281 .08300781 L .45361329 .08300781 L .45361329 0 L 0 0 L 0 .7290039 Z "/>
</symbol>
<symbol id="font_0_2">
<path d="M .33789063 .67626956 C .26627604 .67626956 .20930989 .64957687 .16699219 .5961914 C .125 .54280599 .104003909 .4700521 .104003909 .3779297 C .104003909 .2861328 .125 .21354167 .16699219 .16015625 C .20930989 .106770839 .26627604 .080078128 .33789063 .080078128 C .40950523 .080078128 .46614585 .106770839 .5078125 .16015625 C .5498047 .21354167 .5708008 .2861328 .5708008 .3779297 C .5708008 .4700521 .5498047 .54280599 .5078125 .5961914 C .46614585 .64957687 .40950523 .67626956 .33789063 .67626956 M .33789063 .75634768 C .44010417 .75634768 .5218099 .7220052 .5830078 .6533203 C .64420577 .58496096 .6748047 .49316407 .6748047 .3779297 C .6748047 .26302085 .64420577 .17122396 .5830078 .10253906 C .5218099 .034179689 .44010417 0 .33789063 0 C .23535156 0 .15332031 .034179689 .091796878 .10253906 C .030598959 .17089844 0 .2626953 0 .3779297 C 0 .49316407 .030598959 .58496096 .091796878 .6533203 C .15332031 .7220052 .23535156 .75634768 .33789063 .75634768 Z "/>
</symbol>
<use xlink:href="#font_0_1" transform="matrix(122.96375,0,0,-130.8125,162.52655,800.6666)" fill="#ffffff"/>
<use xlink:href="#font_0_2" transform="matrix(122.96375,0,0,-130.8125,227.57534,802.5189)" fill="#ffffff"/>
<path transform="matrix(2.611111,0,0,2.7777777,0,0)" stroke-width=".75" stroke-linecap="butt" stroke-miterlimit="10" stroke-linejoin="miter" fill="none" stroke="#000000" d="M 62.242 253.91 L 66.88 253.91 L 66.88 284.332 L 83.602 284.332 L 83.602 288.238 L 62.242 288.238 Z M 103.083 257.051 C 99.713 257.051 97.037 258.312 95.055 260.832 C 93.068 263.344 92.079 266.77 92.079 271.113 C 92.079 275.438 93.068 278.855 95.055 281.363 C 97.037 283.875 99.713 285.129 103.083 285.129 C 106.462 285.129 109.134 283.875 111.095 281.363 C 113.065 278.855 114.054 275.438 114.054 271.113 C 114.054 266.77 113.065 263.344 111.095 260.832 C 109.134 258.312 106.462 257.051 103.083 257.051 Z M 103.083 253.285 C 107.904 253.285 111.752 254.902 114.636 258.129 C 117.516 261.359 118.958 265.688 118.958 271.113 C 118.958 276.52 117.516 280.84 114.636 284.066 C 111.752 287.297 107.904 288.91 103.083 288.91 C 98.263 288.91 94.407 287.301 91.514 284.082 C 88.622 280.863 87.176 276.543 87.176 271.113 C 87.176 265.688 88.622 261.359 91.514 258.129 C 94.407 254.902 98.263 253.285 103.083 253.285 Z M 103.083 253.285 "/>
<symbol id="font_0_3">
<path d="M .5390625 .11816406 L .5390625 .31396485 L .3779297 .31396485 L .3779297 .39501954 L .63671877 .39501954 L .63671877 .08203125 C .5986328 .05501302 .5566406 .034505208 .5107422 .020507813 C .46484376 .0068359377 .41585288 0 .36376954 0 C .24983724 0 .16064453 .033203126 .096191409 .099609378 C .0320638 .16634114 0 .2591146 0 .3779297 C 0 .4970703 .0320638 .58984377 .096191409 .65625 C .16064453 .72298178 .24983724 .75634768 .36376954 .75634768 C .41129557 .75634768 .45638023 .7504883 .49902345 .73876956 C .5419922 .7270508 .58154299 .70979818 .6176758 .6870117 L .6176758 .58203127 C .58121749 .61295577 .54248049 .63623049 .50146487 .65185549 C .46044923 .66748049 .41731773 .67529299 .3720703 .67529299 C .2828776 .67529299 .21582031 .6503906 .17089844 .60058596 C .12630208 .55078127 .104003909 .4765625 .104003909 .3779297 C .104003909 .2796224 .12630208 .2055664 .17089844 .15576172 C .21582031 .10595703 .2828776 .08105469 .3720703 .08105469 C .40690104 .08105469 .43798829 .083984378 .46533204 .08984375 C .49267579 .09602865 .5172526 .10546875 .5390625 .11816406 Z "/>
</symbol>
<use xlink:href="#font_0_3" transform="matrix(122.96375,0,0,-130.8125,330.569,802.5189)" fill="#ffffff"/>
<path transform="matrix(2.611111,0,0,2.7777777,0,0)" stroke-width=".75" stroke-linecap="butt" stroke-miterlimit="10" stroke-linejoin="miter" fill="none" stroke="#000000" d="M 151.982 283.348 L 151.982 274.113 L 144.402 274.113 L 144.402 270.301 L 156.587 270.301 L 156.587 285.035 C 154.791 286.316 152.813 287.285 150.652 287.941 C 148.492 288.586 146.185 288.91 143.738 288.91 C 138.36 288.91 134.163 287.344 131.138 284.207 C 128.113 281.074 126.6 276.707 126.6 271.113 C 126.6 265.5 128.113 261.125 131.138 257.988 C 134.163 254.855 138.36 253.285 143.738 253.285 C 145.973 253.285 148.097 253.562 150.104 254.113 C 152.119 254.668 153.981 255.48 155.689 256.551 L 155.689 261.488 C 153.969 260.043 152.14 258.949 150.204 258.207 C 148.275 257.469 146.248 257.098 144.12 257.098 C 139.919 257.098 136.764 258.277 134.662 260.629 C 132.555 262.973 131.503 266.469 131.503 271.113 C 131.503 275.738 132.555 279.223 134.662 281.566 C 136.764 283.91 139.919 285.082 144.12 285.082 C 145.757 285.082 147.22 284.941 148.508 284.66 C 149.805 284.379 150.96 283.941 151.982 283.348 Z M 151.982 283.348 "/>
<symbol id="font_0_4">
<path d="M .46923829 .7192383 L .46923829 .6230469 C .43180339 .6409505 .39648438 .6542969 .36328126 .66308596 C .33007813 .671875 .2980143 .67626956 .26708985 .67626956 C .2133789 .67626956 .171875 .66585287 .14257813 .64501956 C .11360677 .6241862 .099121097 .5945638 .099121097 .55615237 C .099121097 .5239258 .10872396 .49951173 .12792969 .48291017 C .14746094 .46663413 .1842448 .45345054 .23828125 .44335938 L .29785157 .43115235 C .37141929 .41715495 .4256185 .39241538 .46044923 .3569336 C .49560548 .32177735 .5131836 .2745768 .5131836 .21533203 C .5131836 .14469402 .48942057 .091145839 .44189454 .0546875 C .394694 .018229166 .32535807 0 .23388672 0 C .19938152 0 .16259766 .00390625 .123535159 .01171875 C .08479818 .01953125 .044596357 .03108724 .0029296876 .04638672 L .0029296876 .14794922 C .04296875 .12548828 .08219401 .108561199 .12060547 .09716797 C .15901692 .08577474 .19677735 .080078128 .23388672 .080078128 C .2902018 .080078128 .33365885 .091145839 .3642578 .11328125 C .39485679 .13541667 .41015626 .16699219 .41015626 .20800781 C .41015626 .24381511 .39908854 .2718099 .37695313 .2919922 C .35514323 .31217448 .3191732 .3273112 .26904298 .33740235 L .20898438 .3491211 C .13541667 .36376954 .08219401 .38671876 .049316408 .41796876 C .016438803 .44921876 0 .49267579 0 .54833987 C 0 .61279299 .022623698 .6635742 .067871097 .7006836 C .11344401 .73779299 .17610677 .75634768 .25585938 .75634768 C .29003907 .75634768 .32486979 .7532552 .36035157 .7470703 C .39583335 .74088546 .4321289 .7316081 .46923829 .7192383 Z "/>
</symbol>
<use xlink:href="#font_0_4" transform="matrix(122.96375,0,0,-130.8125,433.26295,802.5189)" fill="#ffffff"/>
<path transform="matrix(2.611111,0,0,2.7777777,0,0)" stroke-width=".75" stroke-linecap="butt" stroke-miterlimit="10" stroke-linejoin="miter" fill="none" stroke="#000000" d="M 188.028 255.035 L 188.028 259.566 C 186.266 258.723 184.604 258.094 183.041 257.676 C 181.479 257.262 179.966 257.051 178.503 257.051 C 175.977 257.051 174.023 257.547 172.652 258.535 C 171.289 259.516 170.608 260.906 170.608 262.707 C 170.608 264.23 171.061 265.379 171.971 266.16 C 172.876 266.934 174.605 267.551 177.157 268.02 L 179.966 268.598 C 183.423 269.254 185.975 270.418 187.629 272.082 C 189.279 273.75 190.106 275.98 190.106 278.77 C 190.106 282.094 188.984 284.613 186.748 286.332 C 184.52 288.051 181.25 288.91 176.941 288.91 C 175.32 288.91 173.591 288.723 171.754 288.348 C 169.926 287.984 168.031 287.441 166.07 286.723 L 166.07 281.941 C 167.952 282.996 169.797 283.793 171.605 284.332 C 173.421 284.863 175.199 285.129 176.941 285.129 C 179.6 285.129 181.649 284.609 183.091 283.566 C 184.529 282.527 185.252 281.043 185.252 279.113 C 185.252 277.426 184.728 276.109 183.689 275.16 C 182.659 274.203 180.963 273.488 178.603 273.02 L 175.777 272.457 C 172.307 271.77 169.797 270.691 168.247 269.223 C 166.705 267.754 165.937 265.707 165.937 263.082 C 165.937 260.051 167.005 257.66 169.145 255.91 C 171.281 254.16 174.231 253.285 177.988 253.285 C 179.592 253.285 181.229 253.434 182.891 253.723 C 184.562 254.016 186.274 254.453 188.028 255.035 Z M 188.028 255.035 "/>
<symbol id="font_0_5">
<path d="M 0 .7290039 L .6166992 .7290039 L .6166992 .6459961 L .35791017 .6459961 L .35791017 0 L .25878907 0 L .25878907 .6459961 L 0 .6459961 L 0 .7290039 Z "/>
</symbol>
<use xlink:href="#font_0_5" transform="matrix(122.96375,0,0,-130.8125,508.99848,800.6666)" fill="#ffffff"/>
<path transform="matrix(2.611111,0,0,2.7777777,0,0)" stroke-width=".75" stroke-linecap="butt" stroke-miterlimit="10" stroke-linejoin="miter" fill="none" stroke="#000000" d="M 194.943 253.91 L 223.982 253.91 L 223.982 257.816 L 211.798 257.816 L 211.798 288.238 L 207.127 288.238 L 207.127 257.816 L 194.943 257.816 Z M 194.943 253.91 "/>
<symbol id="font_0_6">
<path d="M .34570313 .34179688 C .36686198 .3346354 .38736979 .31933595 .40722657 .29589845 C .42740885 .27246095 .44759117 .24023438 .46777345 .19921875 L .5678711 0 L .46191407 0 L .36865235 .18701172 C .3445638 .23583985 .3211263 .26822917 .29833985 .2841797 C .2758789 .30013023 .24511719 .30810548 .20605469 .30810548 L .09863281 .30810548 L .09863281 0 L 0 0 L 0 .7290039 L .22265625 .7290039 C .3059896 .7290039 .36816407 .71158859 .4091797 .6767578 C .4501953 .64192709 .47070313 .58935549 .47070313 .51904299 C .47070313 .47314454 .45996095 .4350586 .43847657 .40478517 C .41731773 .37451173 .38639323 .35351563 .34570313 .34179688 M .09863281 .6479492 L .09863281 .38916017 L .22265625 .38916017 C .27018229 .38916017 .3059896 .4000651 .33007813 .421875 C .3544922 .4440104 .36669923 .47639976 .36669923 .51904299 C .36669923 .5616862 .3544922 .59375 .33007813 .6152344 C .3059896 .63704428 .27018229 .6479492 .22265625 .6479492 L .09863281 .6479492 Z "/>
</symbol>
<use xlink:href="#font_0_6" transform="matrix(122.96375,0,0,-130.8125,602.74636,800.6666)" fill="#ffffff"/>
<path transform="matrix(2.611111,0,0,2.7777777,0,0)" stroke-width=".75" stroke-linecap="butt" stroke-miterlimit="10" stroke-linejoin="miter" fill="none" stroke="#000000" d="M 247.112 272.145 C 248.109 272.48 249.077 273.199 250.021 274.301 C 250.96 275.406 251.907 276.926 252.863 278.863 L 257.584 288.238 L 252.597 288.238 L 248.192 279.426 C 247.062 277.137 245.965 275.613 244.901 274.863 C 243.837 274.105 242.383 273.723 240.546 273.723 L 235.476 273.723 L 235.476 288.238 L 230.839 288.238 L 230.839 253.91 L 241.327 253.91 C 245.25 253.91 248.176 254.734 250.104 256.379 C 252.04 258.016 253.013 260.488 253.013 263.801 C 253.013 265.957 252.506 267.75 251.5 269.176 C 250.49 270.605 249.028 271.594 247.112 272.145 Z M 235.476 257.723 L 235.476 269.91 L 241.327 269.91 C 243.563 269.91 245.254 269.395 246.397 268.363 C 247.536 267.324 248.109 265.801 248.109 263.801 C 248.109 261.793 247.536 260.277 246.397 259.254 C 245.254 258.234 243.563 257.723 241.327 257.723 Z M 235.476 257.723 "/>
<symbol id="font_0_7">
<path d="M 0 .7290039 L .09863281 .7290039 L .09863281 0 L 0 0 L 0 .7290039 Z "/>
</symbol>
<use xlink:href="#font_0_7" transform="matrix(122.96375,0,0,-130.8125,694.3928,800.6666)" fill="#ffffff"/>
<path transform="matrix(2.611111,0,0,2.7777777,0,0)" stroke-width=".75" stroke-linecap="butt" stroke-miterlimit="10" stroke-linejoin="miter" fill="none" stroke="#000000" d="M 265.937 253.91 L 270.575 253.91 L 270.575 288.238 L 265.937 288.238 Z "/>
<symbol id="font_0_8">
<path d="M 0 .7290039 L .09863281 .7290039 L .09863281 .42089845 L .42578126 .7290039 L .5527344 .7290039 L .19091797 .38916017 L .5786133 0 L .44873048 0 L .09863281 .35107423 L .09863281 0 L 0 0 L 0 .7290039 Z "/>
</symbol>
<use xlink:href="#font_0_8" transform="matrix(122.96375,0,0,-130.8125,736.80569,800.6666)" fill="#ffffff"/>
<path transform="matrix(2.611111,0,0,2.7777777,0,0)" stroke-width=".75" stroke-linecap="butt" stroke-miterlimit="10" stroke-linejoin="miter" fill="none" stroke="#000000" d="M 282.181 253.91 L 286.818 253.91 L 286.818 268.41 L 302.227 253.91 L 308.211 253.91 L 291.174 269.91 L 309.425 288.238 L 303.308 288.238 L 286.818 271.707 L 286.818 288.238 L 282.181 288.238 Z M 282.181 253.91 "/>
<symbol id="font_0_9">
<path d="M 0 .7290039 L .4609375 .7290039 L .4609375 .6459961 L .09863281 .6459961 L .09863281 .43017579 L .44580079 .43017579 L .44580079 .34716798 L .09863281 .34716798 L .09863281 .08300781 L .46972657 .08300781 L .46972657 0 L 0 0 L 0 .7290039 Z "/>
</symbol>
<use xlink:href="#font_0_9" transform="matrix(122.96375,0,0,-130.8125,823.64889,800.6666)" fill="#ffffff"/>
<path transform="matrix(2.611111,0,0,2.7777777,0,0)" stroke-width=".75" stroke-linecap="butt" stroke-miterlimit="10" stroke-linejoin="miter" fill="none" stroke="#000000" d="M 315.438 253.91 L 337.147 253.91 L 337.147 257.816 L 320.076 257.816 L 320.076 267.973 L 336.432 267.973 L 336.432 271.895 L 320.076 271.895 L 320.076 284.332 L 337.562 284.332 L 337.562 288.238 L 315.438 288.238 Z M 315.438 253.91 "/>
</g>
</g>
</svg>
